<svg width="100" height="100" viewBox="0 0 100 100" fill="none" xmlns="http://www.w3.org/2000/svg">
<rect opacity="0.01" width="100" height="100" fill="white"/>
<path fill-rule="evenodd" clip-rule="evenodd" d="M84.4611 13.5911L84.4603 13.5942C85.2234 30.4643 80.3344 43.6211 69.9394 52.7148C70.2632 54.1106 71.3323 60.0446 67.2849 64.2776C65.6672 65.97 64.1726 67.4739 62.8425 68.7478C62.3768 69.1991 61.7537 69.4514 61.1052 69.4514C60.9509 69.4513 60.797 69.4374 60.6452 69.4099C59.8476 69.2694 59.1674 68.7514 58.82 68.0198L55.5177 61.1662C52.7087 62.2368 49.7912 62.9973 46.817 63.4343L46.5778 63.4617L34.1769 51.0935L34.2033 50.8537C34.6346 47.8657 35.3915 44.9339 36.4606 42.1106C35.5841 41.7348 33.7239 40.8449 29.5905 38.8678L29.5836 38.8645C28.8537 38.5158 28.3351 37.8386 28.1887 37.0431C28.0423 36.2476 28.2859 35.4301 28.8439 34.8445C30.1061 33.5188 31.6061 32.0198 33.3019 30.3889C37.5244 26.3296 43.4609 27.3819 44.8576 27.7016C53.93 17.2713 67.0866 12.3436 83.9826 13.0701C84.0046 13.0739 84.0264 13.0792 84.0477 13.0861C84.2184 13.1063 84.3632 13.2207 84.4222 13.3822C84.4316 13.4113 84.4382 13.4412 84.4421 13.4716C84.4497 13.4965 84.4553 13.5219 84.4591 13.5476L84.4601 13.5846L84.4611 13.5911ZM68.9387 52.3204C68.9717 52.2526 69.0198 52.1933 69.0792 52.147C79.2889 43.3339 84.125 30.5176 83.4728 14.0588C67.0065 13.4576 54.2102 18.3263 45.4268 28.5609L45.4093 28.5801L45.4083 28.5813L45.4059 28.5831C45.361 28.6339 45.3063 28.675 45.2449 28.7038C45.2291 28.7101 45.2129 28.7155 45.1964 28.7201C45.1502 28.7376 45.1015 28.7481 45.0522 28.751C45.0441 28.7513 45.0366 28.7561 45.0284 28.7561C45.0072 28.7538 44.9863 28.7501 44.9656 28.7451C44.9428 28.7452 44.9201 28.7436 44.8976 28.7405C44.8326 28.7224 38.2872 26.9826 33.9952 31.1096C32.3097 32.7302 30.8205 34.219 29.5685 35.5339C29.231 35.8875 29.0835 36.3814 29.172 36.8621C29.2604 37.3428 29.574 37.7519 30.0152 37.9621C30.0152 37.9621 37.1925 41.3957 37.2872 41.4407L37.7028 41.6369L37.5426 42.0681C36.4727 44.8672 35.6971 47.7701 35.2282 50.7297L46.9386 62.4094C49.8968 61.932 52.7974 61.1482 55.5934 60.0705C56.0485 59.964 56.049 59.965 59.6743 67.4896L59.7208 67.5861C59.9326 68.0267 60.3427 68.3391 60.8238 68.4261C61.3048 68.5131 61.7984 68.3641 62.151 68.0256C63.4703 66.7619 64.9547 65.2683 66.5621 63.5861C70.6779 59.282 68.9186 52.7429 68.9005 52.677C68.8921 52.636 68.889 52.594 68.8914 52.5522C68.8913 52.545 68.8904 52.5379 68.8894 52.5309C68.8882 52.5214 68.8869 52.512 68.8878 52.5024C68.8931 52.4475 68.9077 52.394 68.9309 52.344C68.9343 52.3363 68.9349 52.3279 68.9387 52.3204Z" fill="black"/>
<path fill-rule="evenodd" clip-rule="evenodd" d="M53.4448 36.5974C53.445 32.2912 56.936 28.8004 61.2422 28.8005C65.5463 28.8058 69.0341 32.2938 69.0391 36.5979C69.0389 40.9041 65.5479 44.3949 61.2417 44.3948C56.9355 44.3946 53.4447 40.9036 53.4448 36.5974ZM54.9623 39.1989C56.0144 41.7388 58.493 43.3949 61.2422 43.3948C64.9942 43.3905 68.0348 40.3499 68.0391 36.5979C68.0392 33.8487 66.3831 31.3701 63.8432 30.318C61.3033 29.2658 58.3796 29.8474 56.4357 31.7914C54.4917 33.7353 53.9101 36.659 54.9623 39.1989Z" fill="black"/>
<path d="M38.8199 65.7703C38.5828 65.6284 38.2757 65.7056 38.1339 65.9426C37.992 66.1797 38.0692 66.4868 38.3062 66.6286C40.1361 67.8118 41.2376 69.8452 41.2291 72.0242C41.1873 74.2288 40.295 76.3321 38.7388 77.8943C37.1543 79.4682 35.1865 80.6014 33.0298 81.1819C32.0772 81.4587 31.0757 81.657 30.108 81.8489L29.3003 82.011C25.7411 82.7408 22.2488 83.7654 18.8594 85.074C18.7281 85.1248 18.5952 85.1824 18.4634 85.2459C18.0279 85.4588 17.5169 85.4512 17.0879 85.2253C16.718 85.0347 16.465 84.675 16.4106 84.2624C16.146 82.2821 16.2203 80.2711 16.6304 78.3157C17.2805 75.3676 18.4387 72.5551 20.0532 70.0041C20.8101 68.7644 20.8393 67.7278 20.1343 67.1609C19.8028 66.9284 19.411 66.7969 19.0063 66.7825L15.7705 66.4123C15.6803 66.4046 15.5909 66.3898 15.5029 66.3683C15.5 66.3596 15.4766 66.2741 15.5864 65.9865C16.6682 62.735 18.9344 60.0098 21.9341 58.3532C25.0732 56.8176 29.0054 57.3649 31.0781 59.6281C31.2648 59.8313 31.5808 59.8448 31.7842 59.6584C31.9876 59.4719 32.0015 59.156 31.8154 58.9523C29.416 56.3332 25.0761 55.7028 21.4946 57.4548C18.2664 59.222 15.823 62.1412 14.6519 65.6301C14.4281 66.0711 14.4608 66.5986 14.7373 67.0085C14.9816 67.2535 15.3105 67.3956 15.6563 67.4055L18.8927 67.7757C19.1076 67.7803 19.3183 67.8366 19.5069 67.9397C19.8209 68.1922 19.5543 68.9026 19.1998 69.4827C17.5245 72.1332 16.3233 75.0551 15.65 78.1175C15.2178 80.1839 15.1402 82.3087 15.4204 84.4011C15.5204 85.1292 15.9652 85.7644 16.6153 86.1072C16.9769 86.2996 17.3804 86.3999 17.7901 86.3992C18.1733 86.3993 18.5516 86.3131 18.897 86.1472C19.0044 86.0954 19.1118 86.0487 19.2193 86.007C22.5569 84.7184 25.9958 83.7094 29.5005 82.9904L30.3023 82.8298C31.2915 82.634 32.3145 82.4309 33.3091 82.1418C35.634 81.5126 37.7543 80.2871 39.46 78.5866C41.1963 76.8359 42.1885 74.4817 42.229 72.0163C42.2312 69.4894 40.9463 67.1353 38.8199 65.7703Z" fill="black"/>
</svg>
