<svg width="100" height="100" viewBox="0 0 100 100" fill="none" xmlns="http://www.w3.org/2000/svg">
<rect opacity="0.01" width="100" height="100" fill="white"/>
<path fill-rule="evenodd" clip-rule="evenodd" d="M77.632 41.9161L86.3725 31.665C86.9074 31.0739 87.1283 30.2632 86.9671 29.4826C86.806 28.7019 86.2822 28.0448 85.5571 27.7138L60.3266 15.2417C60.0791 15.1193 59.7791 15.2207 59.6567 15.4683C59.5343 15.7158 59.6357 16.0157 59.8832 16.1382L85.1313 28.6187C85.5723 28.8158 85.8913 29.2133 85.9883 29.6865C86.0853 30.1597 85.9484 30.6506 85.6206 31.0054L76.7611 41.3958L64.8442 34.4498C64.6055 34.3106 64.2993 34.3913 64.1601 34.6299C64.021 34.8686 64.1016 35.1749 64.3403 35.314L75.8146 42.002L49.6635 54.4917L23.535 42.0124L34.5288 35.9058C34.6862 35.8196 34.7854 35.6556 34.7886 35.4761C34.7919 35.2967 34.6987 35.1292 34.5445 35.0374C34.3903 34.9456 34.1987 34.9434 34.0424 35.0318L22.8082 41.2719L14.0864 31.1113C13.7575 30.7561 13.6202 30.2641 13.7174 29.7899C13.8146 29.3156 14.1345 28.9174 14.5766 28.7202L39.1342 16.1348C39.2942 16.0537 39.3986 15.8932 39.4078 15.7141C39.4169 15.535 39.3294 15.3647 39.1785 15.2678C39.0276 15.1709 38.8363 15.1622 38.6772 15.2451L14.1381 27.8213C13.4148 28.1561 12.8942 28.8155 12.7366 29.5969C12.579 30.3782 12.8032 31.1879 13.3403 31.7769L21.879 41.7258L13.2866 49.8218C12.7041 50.3702 12.4194 51.1642 12.5206 51.9577C12.6218 52.7513 13.0968 53.4484 13.7983 53.833L21.9448 58.3582V72.8174C21.9477 73.7796 22.4999 74.6556 23.3666 75.0732L48.5864 87.1182C49.2676 87.445 50.0604 87.445 50.7416 87.1182L75.9614 75.0732C76.8282 74.6556 77.3803 73.7796 77.3832 72.8174V58.1514L85.4232 53.7563C86.126 53.3726 86.6024 52.6754 86.7044 51.8812C86.8065 51.087 86.5218 50.292 85.9389 49.7431L77.632 41.9161ZM13.5131 51.833C13.449 51.356 13.6201 50.8775 13.9721 50.5493L22.4208 42.5887L48.623 55.1032L38.1157 65.002C37.6449 65.4477 36.9404 65.539 36.3715 65.2281L14.2807 52.957C13.8579 52.7288 13.5718 52.3099 13.5131 51.833ZM22.9448 72.8174C22.9465 73.3948 23.278 73.9205 23.7983 74.1709L49.018 86.2158C49.0656 86.2352 49.1142 86.2521 49.1635 86.2664V55.9673L38.8012 65.7295C38.0147 66.4731 36.8382 66.6244 35.8891 66.104L22.9448 58.9137V72.8174ZM76.3833 72.8174C76.3816 73.3948 76.0501 73.9205 75.5298 74.1709L50.31 86.2158C50.2621 86.2354 50.2132 86.2524 50.1635 86.2668V56.5368L59.9213 65.7295C60.7083 66.4738 61.8858 66.6251 62.8354 66.104L76.3832 58.6981L76.3833 72.8174ZM84.9438 52.8784C85.3673 52.65 85.6541 52.2308 85.7134 51.7534C85.7766 51.2768 85.6052 50.799 85.2534 50.4712L76.8945 42.5947L50.3029 55.2947L60.6069 65.0019C61.0794 65.4484 61.7861 65.5389 62.3559 65.2261L84.9438 52.8784Z" fill="black"/>
<path d="M48.3109 37.7559C48.8961 38.3242 49.8272 38.3242 50.4124 37.7559L58.5745 29.75C58.7703 29.5561 58.7725 29.2405 58.5794 29.0439C58.3864 28.8473 58.0707 28.8439 57.8734 29.0361L49.8617 36.8945V12.5C49.8617 12.2239 49.6378 12 49.3617 12C49.0855 12 48.8617 12.2239 48.8617 12.5V36.8955L40.849 29.0361C40.7214 28.9109 40.5368 28.8632 40.3645 28.911C40.1923 28.9588 40.0587 29.0949 40.014 29.2679C39.9693 29.441 40.0203 29.6247 40.1478 29.75L48.3109 37.7559Z" fill="black"/>
</svg>
