<svg width="100" height="100" viewBox="0 0 100 100" fill="none" xmlns="http://www.w3.org/2000/svg">
<rect opacity="0.01" width="100" height="100" fill="white"/>
<path d="M20.1313 38.5493C20.174 38.5609 20.2181 38.5667 20.2624 38.5666C20.4917 38.5664 20.6922 38.4121 20.7513 38.1906L26.7684 15.6459C27.2779 13.7564 29.2182 12.6336 31.1102 13.1333L49.7386 18.1055C51.631 18.6108 52.7556 20.5543 52.2507 22.4468L50.9518 27.314C50.9172 27.4438 50.9355 27.5821 51.0028 27.6983C51.07 27.8146 51.1808 27.8994 51.3106 27.934C51.5302 27.9924 51.7614 27.8938 51.8715 27.695C53.8198 26.1936 56.5119 26.1126 58.547 27.4942C60.5821 28.8757 61.5003 31.4076 60.824 33.7725C60.1477 36.1375 58.0296 37.801 55.5717 37.8976C53.1596 37.989 50.9505 36.554 50.0536 34.3129C50.0097 34.1393 49.876 34.0026 49.7035 33.9546C49.4336 33.8849 49.1576 34.0446 49.0835 34.3134L46.2335 44.9914C46.1988 45.1212 46.2172 45.2595 46.2844 45.3758C46.3517 45.492 46.4624 45.5768 46.5922 45.6114C46.635 45.623 46.6791 45.6288 46.7234 45.6287C46.9526 45.6285 47.1532 45.4743 47.2122 45.2527L49.7241 35.8415C50.9569 37.7523 53.0731 38.9092 55.3471 38.9154C55.4351 38.9154 55.5232 38.9134 55.6113 38.91C58.3657 38.8137 60.7813 37.0431 61.7024 34.4455C62.6234 31.8478 61.8627 28.9511 59.7841 27.1411C57.7055 25.3312 54.7317 24.9761 52.2854 26.2456L53.2294 22.708C53.5414 21.5397 53.3764 20.2952 52.7707 19.2485C52.165 18.2017 51.1683 17.4385 49.9999 17.1268L31.3715 12.1546C28.9386 11.5082 26.4416 12.9532 25.7897 15.3846L19.7725 37.9293C19.7379 38.0591 19.7562 38.1974 19.8234 38.3136C19.8907 38.4299 20.0015 38.5147 20.1313 38.5493Z" fill="black"/>
<path d="M84.2014 25.8658L61.5805 20.1411C61.4048 20.0963 61.2186 20.1488 61.0921 20.2787C60.9657 20.4086 60.9183 20.5962 60.9678 20.7706C61.0173 20.945 61.1562 21.0797 61.3321 21.1237L83.953 26.8485C84.8648 27.0793 85.6476 27.663 86.1291 28.471C86.6106 29.279 86.7514 30.2452 86.5205 31.157L81.7902 49.8483C81.3092 51.7469 79.3804 52.8965 77.4815 52.4163L72.598 51.1803C72.3267 51.1122 72.0515 51.2764 71.9825 51.5474C71.9289 51.7681 72.0305 51.9972 72.23 52.1055C73.7476 54.0275 73.8661 56.7046 72.5244 58.7532C71.1827 60.8018 68.6813 61.763 66.313 61.1401C63.9447 60.5171 62.24 58.4495 62.0799 56.0059C61.9199 53.5622 63.3403 51.29 65.6071 50.3634C65.6242 50.3535 65.6407 50.3425 65.6564 50.3306C65.7947 50.276 65.9001 50.1607 65.9421 50.018C66.0103 49.7467 65.8461 49.4714 65.575 49.4025L54.8607 46.6911C54.6849 46.6458 54.4982 46.698 54.3715 46.8281C54.2447 46.9581 54.1972 47.146 54.2469 47.3207C54.2967 47.4953 54.4361 47.63 54.6123 47.6737L64.0549 50.0634C61.5932 51.698 60.4923 54.7518 61.3448 57.5811C62.1973 60.4104 64.802 62.3477 67.757 62.3502C67.8767 62.3502 67.997 62.3468 68.1172 62.3408C70.4083 62.2293 72.4824 60.9512 73.612 58.9547C74.7415 56.9582 74.7689 54.5221 73.6844 52.5008L77.2333 53.399C78.4058 53.6959 79.6482 53.5148 80.6872 52.8954C81.7261 52.2761 82.4764 51.2693 82.773 50.0967L87.5031 31.4055C88.118 28.9644 86.641 26.4863 84.2014 25.8658Z" fill="black"/>
<path d="M79.944 60.8535C79.8138 60.8197 79.6755 60.8394 79.5599 60.908C79.4442 60.9767 79.3607 61.0887 79.328 61.2191L73.5696 83.8316C73.3376 84.7432 72.7529 85.5252 71.9442 86.0057C71.1355 86.4862 70.1691 86.6257 69.2575 86.3936L50.5732 81.6357C48.6763 81.1503 47.5303 79.2211 48.0112 77.3231L49.2541 72.4415C49.2874 72.3113 49.2675 72.1732 49.199 72.0577C49.1304 71.9421 49.0187 71.8586 48.8884 71.8255C48.6678 71.7693 48.4373 71.8707 48.3296 72.0713C46.6579 73.3926 44.3884 73.6698 42.4478 72.7899C40.5072 71.9099 39.2204 70.02 39.1128 67.8919C38.972 65.1208 40.8475 62.6512 43.5547 62.043C46.2618 61.4349 49.0135 62.8651 50.0713 65.4301C50.1273 65.6497 50.3253 65.8031 50.5519 65.8024C50.7833 65.8022 50.9851 65.6451 51.0423 65.4209L53.7695 54.7111C53.8387 54.4401 53.675 54.1643 53.4039 54.0951C53.1328 54.026 52.857 54.1897 52.7879 54.4608L50.3839 63.901C48.9488 61.7366 46.3929 60.5956 43.8235 60.9724C41.2541 61.3492 39.1334 63.176 38.3802 65.6612C37.627 68.1465 38.3768 70.8432 40.3048 72.583C41.5336 73.6996 43.1352 74.317 44.7955 74.3143C44.9113 74.3143 45.0276 74.3113 45.1444 74.3054C46.1198 74.2529 47.0718 73.9865 47.9328 73.5251L47.0295 77.0728C46.7308 78.2448 46.91 79.4874 47.5277 80.5273C48.1453 81.5671 49.1508 82.319 50.3228 82.6174L69.0072 87.3754C69.3774 87.47 69.7581 87.518 70.1402 87.5183C72.222 87.5123 74.0361 86.099 74.5513 84.082L80.3097 61.4695C80.343 61.3393 80.3231 61.2012 80.2545 61.0857C80.186 60.9701 80.0742 60.8866 79.944 60.8535Z" fill="black"/>
<path d="M38.2235 78.8352L15.6585 72.8927C14.7489 72.6533 13.9716 72.0622 13.4978 71.2496C13.024 70.437 12.8925 69.4695 13.1321 68.5599L18.0419 49.9151C18.5427 48.0224 20.4809 46.8921 22.3748 47.3882L27.2461 48.6712C27.4904 48.7384 27.7464 48.6126 27.8427 48.3783C27.939 48.1439 27.8453 47.8745 27.6243 47.7505C26.3161 46.0681 26.057 43.796 26.9527 41.8622C27.8484 39.9285 29.7491 38.6568 31.8783 38.5666C34.6521 38.4484 37.1075 40.3463 37.6919 43.0605C38.2763 45.7746 36.8196 48.5149 34.2429 49.5487C34.0721 49.5939 33.9381 49.7265 33.8911 49.8969C33.8568 50.0268 33.8756 50.165 33.9432 50.2811C34.0109 50.3972 34.1219 50.4816 34.2519 50.5158L44.9394 53.3302C45.2094 53.4004 45.4854 53.2389 45.5565 52.969C45.6276 52.6992 45.4672 52.4227 45.1976 52.3505L35.7782 49.8701C38.8276 47.8983 39.7592 43.8607 37.882 40.7522C36.0047 37.6437 31.9977 36.5886 28.833 38.3694C25.6683 40.1503 24.4906 44.1231 26.1735 47.341L22.6331 46.4085C20.1978 45.7677 17.7041 47.2218 17.0623 49.6569L12.1524 68.3016C11.8443 69.471 12.0134 70.7149 12.6225 71.7597C13.2316 72.8045 14.2308 73.5644 15.4002 73.8724L37.9652 79.8149C38.1405 79.8618 38.3275 79.8114 38.4554 79.6827C38.5833 79.5541 38.6327 79.3668 38.5848 79.1918C38.5369 79.0168 38.3991 78.8808 38.2235 78.8352Z" fill="black"/>
</svg>
