<svg width="60" height="60" viewBox="0 0 60 60" fill="none" xmlns="http://www.w3.org/2000/svg">
<path fill-rule="evenodd" clip-rule="evenodd" d="M25.8966 41.4546C36.463 41.4546 42.2414 32.6066 42.2414 24.9344C42.2414 24.683 42.2364 24.4328 42.225 24.1837C43.3465 23.3643 44.3216 22.3417 45.0908 21.1774C44.0614 21.6396 42.9537 21.9511 41.7917 22.0915C42.9777 21.3728 43.8884 20.2354 44.3178 18.8797C43.2077 19.5447 41.9787 20.0285 40.6702 20.289C39.6219 19.1604 38.129 18.4546 36.4769 18.4546C33.3043 18.4546 30.7314 21.0549 30.7314 24.2604C30.7314 24.7161 30.7819 25.1592 30.8805 25.5843C26.1063 25.3417 21.8725 23.0311 19.0396 19.5179C18.5458 20.3757 18.2616 21.3728 18.2616 22.4362C18.2616 24.4507 19.2758 26.2289 20.818 27.2693C19.8757 27.24 18.9903 26.9782 18.2161 26.543C18.2149 26.5672 18.2149 26.5914 18.2149 26.6169C18.2149 29.4293 20.1953 31.7769 22.8237 32.3092C22.3412 32.4419 21.8335 32.5135 21.3093 32.5135C20.9393 32.5135 20.5793 32.4764 20.2294 32.4087C20.9606 34.7156 23.0814 36.3942 25.596 36.4416C23.6295 37.9989 21.1527 38.927 18.4611 38.927C17.9977 38.927 17.5404 38.9002 17.0908 38.8465C19.6332 40.4934 22.6518 41.4546 25.8966 41.4546Z" fill="white"/>
</svg>
