<svg width="60" height="60" viewBox="0 0 60 60" fill="none" xmlns="http://www.w3.org/2000/svg">
<path fill-rule="evenodd" clip-rule="evenodd" d="M39.8932 23.5903V27.193H36.1948V29.7155H39.8932V33.32H42.6663V29.7155H46.3638V27.1029H42.6663V23.5903H39.8932ZM23.6242 26.3825V30.4366H29.1704C28.8007 32.7789 26.6747 34.4906 23.6242 34.4906C20.2965 34.4906 17.5234 31.6978 17.5234 28.4546C17.5234 25.2113 20.2041 22.4186 23.6242 22.4186C25.1957 22.4186 26.4898 22.869 27.599 23.9501L30.557 21.0672C28.7083 19.4456 26.3973 18.4546 23.6242 18.4546C17.9856 18.4546 13.3638 22.9591 13.3638 28.4546C13.3638 33.9501 17.9856 38.4546 23.6242 38.4546C29.6326 38.4546 33.515 34.3104 33.515 28.6348C33.515 27.9141 33.4225 27.1032 33.3301 26.3825H23.6242Z" fill="white"/>
</svg>
