<svg xmlns="http://www.w3.org/2000/svg" width="80" height="27" fill="none" viewBox="0 0 80 27"><path fill="#151515" d="M34.5862 25.6591H28.1504L32.1758 0.768921H38.6113L34.5862 25.6591Z"/><path fill="#151515" d="M57.9165 1.37742C56.6471 0.873804 54.6337 0.317749 52.1441 0.317749C45.7885 0.317749 41.313 3.70687 41.2855 8.55229C41.2327 12.1272 44.4899 14.1128 46.926 15.3048C49.4159 16.5229 50.2623 17.3179 50.2623 18.4036C50.237 20.0711 48.2503 20.8397 46.3974 20.8397C43.8279 20.8397 42.4511 20.4434 40.3589 19.5157L39.5114 19.118L38.6108 24.7053C40.1203 25.393 42.9013 26.0033 45.7885 26.03C52.5414 26.03 56.9378 22.6933 56.9899 17.5298C57.0156 14.6963 55.2957 12.5253 51.5877 10.7512C49.3367 9.61231 47.9582 8.84439 47.9582 7.67914C47.9846 6.61982 49.1241 5.53481 51.6651 5.53481C53.7574 5.48167 55.2946 5.98458 56.4591 6.48785L57.0412 6.75215L57.9165 1.37742Z"/><path fill="#151515" fill-rule="evenodd" d="M69.4363 0.768921H74.4144L79.6065 25.6587H73.6475C73.6475 25.6587 73.0644 22.7989 72.8796 21.9251H64.6166C64.3776 22.5867 63.2658 25.6587 63.2658 25.6587H56.5129L66.0725 2.83407C66.7348 1.21869 67.9012 0.768921 69.4363 0.768921ZM69.0397 9.87731C69.0397 9.87731 67.0002 15.4115 66.4702 16.8414H71.8196C71.5549 15.5969 70.3362 9.63905 70.3362 9.63905L69.8864 7.49437C69.697 8.04665 69.4231 8.80594 69.2383 9.31807C69.1131 9.66521 69.0289 9.89878 69.0397 9.87731Z" clip-rule="evenodd"/><path fill="#151515" d="M22.7749 0.768921L16.4722 17.7416L15.7834 14.2994C14.6182 10.3274 10.9637 6.01203 6.8855 3.86629L12.6586 25.6327H19.4643L29.5803 0.768921H22.7749V0.768921Z"/><path fill="#151515" d="M10.6195 0.768921H0.264868L0.158936 1.27183C8.23616 3.33733 13.5856 8.31613 15.7834 14.3004L13.5324 2.86117C13.1618 1.27148 12.023 0.821359 10.6195 0.768921Z"/></svg>